#!OML:ASF I:\Actors\actors\Patient Classification 1\Patient 1\Session 1\Subject1.ASF
:FULLY-SPECIFIED
:DEGREES
1627
root 0.435626 17.5902 8.08818 12.0778 6.49122 -7.13058
lowerback 1.31628 0.877525 2.8833
upperback -10.2853 1.56598 1.30161
thorax -11.7236 0.577489 -0.384359
lowerneck -12.907 -8.65875 -5.77291
upperneck 17.164 -12.042 6.53977
head 8.19938 -5.50022 1.73432
rclavicle -9.49197e-015 2.98177e-014
rhumerus -66.5254 11.5689 -88.7292
rradius 67.6847
rwrist 39.2904
rhand -36.2117 -27.0815
rfingers 7.12502
rthumb -9.31404 663.144
lclavicle -9.49197e-015 2.98177e-014
lhumerus -51.4879 12.062 72.8459
lradius 34.7208
lwrist -8.552
lhand -35.674 -32.7087
lfingers 7.12502
lthumb -8.79524 -2.91196
rfemur -3.40237 28.1086 18.9138
rtibia -0.975358
rfoot -18.3939 -35.9441
rtoes 8.59601
lfemur -0.318363 -52.4151 -12.6263
ltibia -5.61021
lfoot -18.2488 55.1244
ltoes 15.372
1628
root 0.382029 17.5858 8.08168 12.0761 6.02899 -7.15816
lowerback 1.33102 0.816349 3.06096
upperback -10.2989 1.50005 1.35059
thorax -11.7491 0.529985 -0.42294
lowerneck -13.0126 -8.44203 -5.62081
upperneck 17.4567 -11.7383 6.2866
head 8.26988 -5.36278 1.65929
rclavicle -1.88845e-014 7.15625e-015
rhumerus -66.1372 10.0897 -87.6838
rradius 64.4536
rwrist 39.9058
rhand -36.1905 -26.8204
rfingers 7.12502
rthumb -9.29359 663.404
lclavicle -1.88845e-014 7.15625e-015
lhumerus -51.367 13.4921 71.6975
lradius 32.2555
lwrist -10.8914
lhand -35.5394 -32.7496
lfingers 7.12502
lthumb -8.66537 -2.94741
rfemur -3.47663 28.3792 19.0724
rtibia -0.991357
rfoot -18.3037 -35.7294
rtoes 10.0337
lfemur -0.160398 -52.2222 -12.5202
ltibia -5.64543
lfoot -19.0248 55.2305
ltoes 15.9339
1629
root 0.328491 17.5823 8.07333 12.0801 5.51605 -7.18859
lowerback 1.35645 0.800575 3.23939
upperback -10.3399 1.49658 1.38832
thorax -11.8113 0.51141 -0.481241
lowerneck -13.1024 -8.18896 -5.2215
upperneck 17.8381 -11.3818 5.74591
head 8.33223 -5.21141 1.45806
rclavicle -1.16289e-014 2.38542e-015
rhumerus -65.7371 8.67075 -86.7164
rradius 61.2104
rwrist 40.3794
rhand -36.2621 -26.6613
rfingers 7.12502
rthumb -9.36266 663.567
lclavicle -1.16289e-014 2.38542e-015
lhumerus -51.2919 14.873 70.4763
lradius 29.8501
lwrist -13.6316
lhand -35.5507 -32.6986
lfingers 7.12502
lthumb -8.67628 -2.8969
rfemur -3.59032 28.543 19.2026
rtibia -1.03057
rfoot -17.9348 -35.4356
rtoes 10.4184
lfemur 0.0252196 -51.985 -12.4527
ltibia -5.66194
lfoot -20.1475 55.277
ltoes 16.7579
1630
root 0.275265 17.5821 8.0661 12.1695 4.97526 -6.97826
lowerback 1.28261 0.770377 3.1454
upperback -10.4125 1.44436 1.37794
thorax -11.8531 0.492622 -0.432847
lowerneck -13.1056 -7.9496 -4.93215
upperneck 18.2202 -11.0403 5.28534
head 8.39543 -5.06933 1.30052
rclavicle -1.78906e-015 -2.5842e-014
rhumerus -65.3367 7.40097 -85.8016
rradius 58.0922
rwrist 41.0487
rhand -36.229 -26.8621
rfingers 7.12502
rthumb -9.33077 663.364
lclavicle -1.78906e-015 -2.5842e-014
lhumerus -51.3448 16.4571 68.9901
lradius 27.5081
lwrist -16.714
lhand -35.4373 -32.6928
lfingers 7.12502
lthumb -8.56679 -2.88657
rfemur -3.77142 28.5843 19.0045
rtibia -1.14357
rfoot -17.1651 -35.1714
rtoes 9.32656
lfemur 0.0730842 -51.7683 -12.5997
ltibia -5.59467
lfoot -21.118 55.3285
ltoes 17.616
1631
root 0.222865 17.5818 8.05763 12.2093 4.45215 -6.95215
lowerback 1.24234 0.735424 3.23974
upperback -10.4637 1.40653 1.42661
thorax -11.8895 0.466368 -0.427541
lowerneck -13.211 -7.72293 -4.73728
upperneck 18.6769 -10.7243 4.95899
head 8.52008 -4.92917 1.19253
rclavicle -5.96354e-015 -2.94201e-014
rhumerus -64.8784 6.29764 -84.9514
rradius 55.1403
rwrist 41.9484
rhand -35.8896 -27.006
rfingers 7.12502
rthumb -9.00329 663.206
lclavicle -5.96354e-015 -2.94201e-014
lhumerus -51.5596 18.6541 66.9295
lradius 25.1979
lwrist -20.5306
lhand -35.3775 -32.5516
lfingers 7.12502
lthumb -8.50905 -2.74302
rfemur -3.92974 28.6497 19.038
rtibia -1.21936
rfoot -16.5 -34.8325
rtoes 8.39909
lfemur 0.160684 -51.534 -12.5629
ltibia -5.54962
lfoot -21.828 55.4282
ltoes 18.1545
